<svg width="26" height="25" viewBox="0 0 26 25" fill="none" xmlns="http://www.w3.org/2000/svg">
<path fill-rule="evenodd" clip-rule="evenodd" d="M6.31878 2.8227C6.28347 1.2204 5.13767 0 3.27704 0C1.41642 0 0.200012 1.2204 0.200012 2.8227C0.200012 4.3918 1.38047 5.64735 3.20644 5.64735H3.2412C5.13767 5.64735 6.31878 4.3918 6.31878 2.8227ZM5.96055 7.87785H0.521629V24.2196H5.96055V7.87785ZM19.3131 7.49411C22.8922 7.49411 25.5754 9.83026 25.5754 14.8497L25.5752 24.2196H20.1365V15.4767C20.1365 13.2807 19.3494 11.7822 17.3805 11.7822C15.8779 11.7822 14.9829 12.7924 14.5898 13.7682C14.446 14.1178 14.4107 14.605 14.4107 15.0934V24.22H8.97111C8.97111 24.22 9.0428 9.41171 8.97111 7.87828H14.4107V10.1929C15.1326 9.08025 16.4254 7.49411 19.3131 7.49411Z" fill="black"/>
</svg>
